/* XPM */
static char *_4368a3b921c4cc5ccbd326aba1386baoUwxO1xRixJo01rH[] = {
/* columns rows colors chars-per-pixel */
"64 64 247 2 ",
"   c None",
".  c #030203",
"X  c #0B0B04",
"o  c #0B0B0A",
"O  c #050A05",
"+  c #0C130B",
"@  c #091609",
"#  c #151205",
"$  c #1D1A04",
"%  c #14140B",
"&  c #1A1709",
"*  c #1B1B1A",
"=  c #161713",
"-  c #110E08",
";  c #211C07",
":  c #0B250B",
">  c #192517",
",  c #133314",
"<  c #262406",
"1  c #352B04",
"2  c #393605",
"3  c #22331A",
"4  c #242524",
"5  c #2C3825",
"6  c #383A2F",
"7  c #463807",
"8  c #105312",
"9  c #2B5A11",
"0  c #0E7C1C",
"q  c #0D751B",
"w  c #137C1C",
"e  c #13741B",
"r  c #156812",
"t  c #2B7010",
"y  c #344D2D",
"u  c #227321",
"i  c #4C4604",
"p  c #584705",
"a  c #585604",
"s  c #554B13",
"d  c #675D06",
"f  c #685308",
"g  c #726A06",
"h  c #4E4E35",
"j  c #4E7730",
"k  c #696C23",
"l  c #655723",
"z  c #4B4B47",
"x  c #53574D",
"c  c #536F48",
"v  c #667358",
"b  c #6A6A69",
"n  c #717A67",
"m  c #777976",
"M  c #887A03",
"N  c #8D7109",
"B  c #85732B",
"V  c #A07A03",
"C  c #0D841C",
"Z  c #0C8B1B",
"A  c #11831D",
"S  c #128B1D",
"D  c #1A8B1C",
"F  c #0C941C",
"G  c #0C9C1B",
"H  c #0A9D17",
"J  c #12931D",
"K  c #139B1C",
"L  c #19971A",
"P  c #178D0D",
"I  c #239A1A",
"U  c #2E980D",
"Y  c #0DAD16",
"T  c #0CA41A",
"R  c #0BAB19",
"E  c #0BA516",
"W  c #1BA51B",
"Q  c #15A919",
"!  c #0BB315",
"~  c #0BBB14",
"^  c #09B617",
"/  c #13B315",
"(  c #14BB13",
")  c #19B818",
"_  c #27AA1C",
"`  c #27B71A",
"'  c #2EB416",
"]  c #0F8D20",
"[  c #158922",
"{  c #0F9220",
"}  c #189724",
"|  c #26972D",
" . c #318F34",
".. c #19A623",
"X. c #18B726",
"o. c #24A824",
"O. c #28B825",
"+. c #35B827",
"@. c #34AC36",
"#. c #469714",
"$. c #758409",
"%. c #4AAF12",
"&. c #4E8D32",
"*. c #4FB834",
"=. c #679F34",
"-. c #09C612",
";. c #1BC411",
":. c #13CA11",
">. c #1BC912",
",. c #16C414",
"<. c #17D310",
"1. c #28D40F",
"2. c #36D80F",
"3. c #23CD11",
"4. c #27C716",
"5. c #36CA1C",
"6. c #25D210",
"7. c #2BD410",
"8. c #28DA12",
"9. c #35DB11",
"0. c #3CDD11",
"q. c #35D615",
"w. c #29C80F",
"e. c #39E212",
"r. c #39C52B",
"t. c #33D02B",
"y. c #19CA25",
"u. c #41CC1D",
"i. c #45D81C",
"p. c #44E312",
"a. c #49E512",
"s. c #4BE915",
"d. c #54EB15",
"f. c #5AEE17",
"g. c #59ED1A",
"h. c #5CF118",
"j. c #64F31A",
"k. c #6AF61B",
"l. c #6EF91C",
"z. c #62F317",
"x. c #71FA1E",
"c. c #6AEB1C",
"v. c #4DD230",
"b. c #65D92D",
"n. c #5AE725",
"m. c #6CF325",
"M. c #75F825",
"N. c #7AF635",
"B. c #67EA2F",
"V. c #3AA043",
"C. c #528F4A",
"Z. c #66904E",
"A. c #56B256",
"S. c #6BAE55",
"D. c #768B6C",
"F. c #74A96B",
"G. c #52CF4B",
"H. c #62D44B",
"J. c #66D857",
"K. c #6FD14E",
"L. c #72E64E",
"P. c #72CB6B",
"I. c #8A8703",
"U. c #999106",
"Y. c #A99704",
"T. c #B69803",
"R. c #AF8802",
"E. c #BAA70D",
"W. c #A7992A",
"Q. c #B7AB2C",
"!. c #9E9039",
"~. c #C5AA08",
"^. c #C1B602",
"/. c #D6B703",
"(. c #C1AF21",
"). c #83FA2D",
"_. c #87FA34",
"`. c #96FD3C",
"'. c #E3CF10",
"]. c #F2E803",
"[. c #E6DF39",
"{. c #8F944E",
"}. c #89BE4C",
"|. c #A9A64E",
" X c #85926C",
".X c #8FB478",
"XX c #C8B84E",
"oX c #C2B669",
"OX c #86F845",
"+X c #9DFC43",
"@X c #96FC48",
"#X c #93F253",
"$X c #A2FD45",
"%X c #A8FD4D",
"&X c #B6FF58",
"*X c #ADF45A",
"=X c #8AD070",
"-X c #97F466",
";X c #99EA77",
":X c #8DE772",
">X c #A6FA68",
",X c #BCFC75",
"<X c #ACF76F",
"1X c #A4DE5A",
"2X c #D0C852",
"3X c #CDC375",
"4X c #C7FF7B",
"5X c #C2FF6D",
"6X c #FFFF5D",
"7X c #91948E",
"8X c #96B191",
"9X c #B0B2AE",
"0X c #BAB38A",
"qX c #B4CF97",
"wX c #97E88A",
"eX c #B2F28E",
"rX c #B4C8AA",
"tX c #B4EFA8",
"yX c #9FC597",
"uX c #C8FF85",
"iX c #CEFE99",
"pX c #CFD4AE",
"aX c #C6F9A4",
"sX c #DAFEAB",
"dX c #CAF6B8",
"fX c #D6F9BB",
"gX c #CCE5B7",
"hX c #EAFCB8",
"jX c #DFD789",
"kX c #CED1CD",
"lX c #D6EAC8",
"zX c #D9F9C4",
"xX c #DEF8D2",
"cX c #DEE4D7",
"vX c #E7FFCA",
"bX c #ECFDDD",
"nX c #E5FAD5",
"mX c #F1FFDE",
"MX c #E1EFDA",
"NX c #ECF8E5",
"BX c #F4FEEB",
"VX c #F1FFE3",
"CX c #F6FCF2",
"ZX c #F9FFF5",
"AX c #FDFEFD",
"SX c gray95",
"DX c #EAEAEF",
/* pixels */
"                                                                                                                                ",
"                                                                                                                                ",
"                                                                                                                                ",
"                                                                                                                                ",
"                                                                                                                                ",
"                                                                                                                                ",
"                                                                          o % $ < < <                                           ",
"                                                                    % i d g M I.I.I.I.I.g i &                                   ",
"                                                                * k W.U.d 1 ; # X X $ < i I.I.1                                 ",
"                                                            o h |.W.7 - . .         . . . O a Y.2                               ",
"                                                          o x oXk # .                     . . a U.%                             ",
"                                                        . z jXl -                           . X Y.i                             ",
"                                                        * 0XB X                               . M M                             ",
"                                                      . h oX;                                 . d Y.%                           ",
"                                                      o {.B .                                 . d T.$                           ",
"                                                      % Q.f                                   . d Y.&                           ",
"                                                    . & (.p                                   . g U.-                           ",
"                                                    . % ^.p                                   . I.N                             ",
"                                                    @ : E.N O                                 o Q.d                             ",
"                                                . , | { $.g 8 8 O                           . < 2X7                             ",
"                                                : F.tXG.V.| X.} :                           . l XX;                             ",
"                                            . 3 F.tXlXtXwXG.X.X.e @                         .  X!.-                             ",
"                                        O > c =XeX;XJ.G.t.y.^ ..} q : O                     4 oXf                               ",
"                                  o * 6 D.yX,X>XL.n.8.<.-.y.^ T { { ] 8 : O               . v XX;                               ",
"                            . = z 7XrXlXsXuX>XOXN.s.e.8.-.-.~ E T { G { ] 8 @             * oXN                                 ",
"                        O 4 m kXNXmXzXsXeX>X@XN.M.g.e.8.<.-.-.! T T { G F { 0 :         . z XX;                                 ",
"                      * b kXAXZXbXzXsXiXeX&X#X@X_.m.h.e.8.:.-.! R T { { F C { [ , .     . {.B X                                 ",
"                  . z 9XZXAXAXAXZXVXzXsXiXuX>X%X@XN.j.s.e.<.:.-.^ R R G F C ] ] } ,     = Q.f                   - o             ",
"                o b cXBXBXZXAXAXAXAXCXmXvXsXuX&X@X`.M.h.s.9.<.:.^ R E H H Z 0 0 } | > . 2 ~.1               * c Z.&.9 :         ",
"              o m NXmXbXmXCXAXAXAXAXAXZXVXvXsX4X%X`.).M.h.s.e.6.-.^ R T G Z C 0 0 }  .O i T.;             4 9XnXeXG.o.e :       ",
"            o n nXpX X XrXCXAXAXAXAXAXAXBXvXsXuX%X+X_.c.%.t P _ :.~ R R H F Z q q ] @.y p V &           o  XAXAXxXH._ w 8 @     ",
"          . x fXqXv 6 < X b SXAXAXAXAXAXBXvXsXuX&X@X).&.y ; 7 O r ( ^ T H H Z 0 q q } A.f N o         . > rXBXAXzXv...e r ,     ",
"        O 5 qXtXb kXpXU.. . 7XAXAXAXZXZXVXvXsX4X&X$X=.7XBX2X^.$ O P ( Y H G Z 0 q 0 [ A.c d #         . 5 ;X;XeXL.r.H q r 8     ",
"        O D.sX}.h 6X6X].a O z SXAXAXZXZXmXhXiX5X&X$X9  XhX[.].Y.$ r ( / E G Z C 0 0 [ @.F.7 &         . 3 K.b.b.+.O.F q e 8     ",
"      . 5 eX<X=.X Y.].U.a X y SXBXBXBXmXvXsX5X&X&X+X9 - g ].'.d X 8 ;./ E H F C 0 0 [ @.P.y -         . + &.*.U $.t } V. .3     ",
"      . v eX#Xc.: 1 p . . . n nX7XlXpX9XsX,X|.&X%X`.#.. . I.p . . P >./ T H Z C 0 C [ o.P.c ;         . o , u k '.9  .rXn =     ",
"    . % .X>X_.l.U X . . . 5 qXhX X X{.{.$.Z.}.&X$X).c.9 . X . O 9 w.( / Q H F C C C L @.P.D.7 #         . . : |.(.u  .c *       ",
"    . 3 ;X#XM.k.c.%.9 9 #.1X&X4X,X1X<X&X1X+X%X$X_.).l.c.#.t 9 U 7.7.;./ E H F Z C S } @.P..Xf p           . 6 2Xd , , o         ",
"    . h >XOXk.f.f.j.f.z.M._.`.+X$X$X$X$X`.`.).).).l.l.l.l.h.d.p.2.w.( / R E H Z Z J W G.P.8Xs R.p o       < Q.E.; .             ",
"    . j -XN.g.a.a.s.f.f.h.k.M.M.).)._.).).).).l.l.l.l.l.z.f.a.p.7.;.( Y R E E Z Z L O.H.:XyX* p T.V i i d ^./.2                 ",
"    . &.#XN.g.0.9.e.p.s.d.d.f.j.m.x.x.x.x.l.l.l.l.k.k.z.h.d.a.2.1.;.( ! R R E H H Q u.L.eXqX= . 1 V ~././.T.7 O                 ",
"    . &.N.m.i.q.q.9.9.9.e.p.a.d.f.z.j.j.c.k.k.k.z.z.h.f.d.a.0.7.>.( ( ! ! ! R E E ` b.;XtX9X+ . . . ; 1 1 -                     ",
"    . &.N.m.s.5.4.w.6.6.7.8.9.p.a.d.d.f.f.h.f.f.f.d.d.a.p.9.1.<.:.~ ! ~ ~ ^ ! ! ` t.L.eXdX8Xo     . . . .                       ",
"    . j N.B.i.` ` ` ` w.>.4.1.7.2.0.p.p.a.a.a.i.p.i.2.9.7.1.6.:.-.~ ~ ~ ^ ^ ~ ( w.n.-XeXnXD..                                   ",
"    . y B.n.u.' _ W W ) ` ) ;.3.3.w.1.7.7.2.7.1.6.6.3.3.>.;.,.-.~ ~ ! ! ^ ~ -.6.p.L.eXdXxXz                                     ",
"    . > K.n.u._ L D P L / / ) ( ;.;.;.;.>.;.>.;.;.;.;.( ( ~ ^ ^ ! ! ! ! ^ -.:.e.B.<XaXzXkX>                                     ",
"    . . Z.B.u._ D w w A P H Q Y ! / ( ( ( ( ( ( ) ( / / Y Y R R ! ! R ! ~ :.9.n.-XtXfXVXm o                                     ",
"      . 5 L.u.' I w w w A S P H H E Y Y Y / Y / Y Y T T E T T T H E ! ~ :.t.wXfXzXzXnXkX4                                       ",
"      . o Z.v.5._ D w e w A C C F F H G G H T G T G G } { T T T T ! -.<.5.tXCXAXAXVXSXb .                                       ",
"      . . 4 S.i.' I D w w 0 A C C C C F F { G { { G F G F G G T ! ~ y.e.L.xXAXAXAXAX7X%                                         ",
"        . . 5 v.5.' I D [ w [ C ] C A ] ] ] { ] { F F G G T R ^ ) y.v.L.-XzXCXAXAX9X4                                           ",
"          . . 3 +.' ` o.S S A C A C ] ] ] { J K K G } T ..R / y.t.L.tXzXeXdXNXSX9X4                                             ",
"            . . : I ` O.W K J J L ] L [ J K K ..W ..X.Q ) y.t.P.tXNXCXCXnXxXxX7X*                                               ",
"              . . X r o.O.` Q W ....o...o...o.o.O.O.O.v.J.wXtXNXCXAXAXCXSXrXx o                                                 ",
"                . . . : u V.*.r.+.O.+.r.v.v.v.G.J.J.wXtXlXNXBXCXCXSXNX9Xb * .                                                   ",
"                    . . . @ y C.A.P.J.H.J.J.:X:XwXeXtXfXxXnXxXcXrX7Xz * .                                                       ",
"                        . . . X = 5 y c C.S.F.=X=X=X.X.XF.n z 6 = . .                                                           ",
"                              . . . O . O @ + + o + = o . . . .                                                                 ",
"                                      . . O . . . . o                                                                           ",
"                                                                                                                                ",
"                                                                                                                                ",
"                                                                                                                                ",
"                                                                                                                                ",
"                                                                                                                                "
};
